<?xml version="1.0" encoding="UTF-8" standalone="no"?>
<!DOCTYPE svg PUBLIC "-//W3C//DTD SVG 1.1//EN"
 "http://www.w3.org/Graphics/SVG/1.1/DTD/svg11.dtd">
<!-- Generated by graphviz version 2.38.0 (20140413.2041)
 -->
<!-- Title: digitransit Pages: 1 -->
<svg width="3197pt" height="1626pt"
  xmlns="http://www.w3.org/2000/svg" xmlns:xlink="http://www.w3.org/1999/xlink">
<g id="graph0" class="graph" transform="scale(1.38889 1.38889) rotate(0) translate(4 1167)">
<title>digitransit</title>
<polygon fill="white" stroke="none" points="-4,4 -4,-1167 2298,-1167 2298,4 -4,4"/>
<text text-anchor="middle" x="1147" y="-7.8" font-family="Times,serif" font-size="14.00">digitransit</text>
<!-- QueryType -->
<g id="node1" class="node"><title>QueryType</title>
<polygon fill="#e535ab" stroke="none" points="1,-794 1,-815 75,-815 75,-794 1,-794"/>
<polygon fill="none" stroke="black" points="1,-794 1,-815 75,-815 75,-794 1,-794"/>
<text text-anchor="start" x="4.5" y="-801.8" font-family="Times,serif" font-weight="bold" font-size="14.00" fill="white">QueryType</text>
<polygon fill="none" stroke="black" points="0,-793.5 0,-816.5 76,-816.5 76,-793.5 0,-793.5"/>
</g>
<!-- QueryType&#45;&gt;QueryType -->
<g id="edge17" class="edge"><title>QueryType&#45;&gt;QueryType</title>
<path fill="none" stroke="black" d="M18.8237,-823.153C15.8735,-832.539 22.2656,-841 38,-841 47.5881,-841 53.7071,-837.858 56.357,-833.28"/>
<polygon fill="black" stroke="black" points="59.8584,-833.402 57.1763,-823.153 52.8812,-832.838 59.8584,-833.402"/>
<g id="a_edge17&#45;label"><a xlink:title="Needed until https\://github.com/facebook/relay/issues/112 is resolved">
<text text-anchor="middle" x="38" y="-844.8" font-family="Times,serif" font-size="14.00">viewer</text>
</a>
</g>
</g>
<!-- Node -->
<g id="node2" class="node"><title>Node</title>
<polygon fill="#e535ab" stroke="none" points="275,-1141 275,-1162 316,-1162 316,-1141 275,-1141"/>
<polygon fill="none" stroke="black" points="275,-1141 275,-1162 316,-1162 316,-1141 275,-1141"/>
<text text-anchor="start" x="280" y="-1148.8" font-family="Times,serif" font-weight="bold" font-size="14.00" fill="white">Node</text>
<text text-anchor="start" x="277" y="-1127.8" font-family="Times,serif" font-size="14.00">id: ID!</text>
<polygon fill="none" stroke="black" points="273.5,-1121 273.5,-1163 316.5,-1163 316.5,-1121 273.5,-1121"/>
</g>
<!-- QueryType&#45;&gt;Node -->
<g id="edge1" class="edge"><title>QueryType&#45;&gt;Node</title>
<path fill="none" stroke="black" d="M39.6702,-823.061C42.2379,-881.919 53.4449,-1066.72 94,-1107 137.068,-1149.77 212.686,-1150.84 257.58,-1146.95"/>
<polygon fill="black" stroke="black" points="258.147,-1150.42 267.752,-1145.94 257.455,-1143.45 258.147,-1150.42"/>
<g id="a_edge1&#45;label"><a xlink:title="Fetches an object given its ID">
<text text-anchor="middle" x="145" y="-1150.8" font-family="Times,serif" font-size="14.00">node(...)</text>
</a>
</g>
</g>
<!-- Agency -->
<g id="node3" class="node"><title>Agency</title>
<polygon fill="#e535ab" stroke="none" points="245,-757 245,-778 345,-778 345,-757 245,-757"/>
<polygon fill="none" stroke="black" points="245,-757 245,-778 345,-778 345,-757 245,-757"/>
<text text-anchor="start" x="273.5" y="-764.8" font-family="Times,serif" font-weight="bold" font-size="14.00" fill="white">Agency</text>
<text text-anchor="start" x="247" y="-743.8" font-family="Times,serif" font-size="14.00">id: ID!</text>
<text text-anchor="start" x="247" y="-724.8" font-family="Times,serif" font-size="14.00">gtfsId: String!</text>
<text text-anchor="start" x="247" y="-705.8" font-family="Times,serif" font-size="14.00">name: String!</text>
<text text-anchor="start" x="247" y="-686.8" font-family="Times,serif" font-size="14.00">url: String!</text>
<text text-anchor="start" x="247" y="-667.8" font-family="Times,serif" font-size="14.00">timezone: String!</text>
<text text-anchor="start" x="247" y="-648.8" font-family="Times,serif" font-size="14.00">lang: String</text>
<text text-anchor="start" x="247" y="-629.8" font-family="Times,serif" font-size="14.00">phone: String</text>
<text text-anchor="start" x="247" y="-610.8" font-family="Times,serif" font-size="14.00">fareUrl: String</text>
<polygon fill="none" stroke="black" points="244,-604.5 244,-779.5 346,-779.5 346,-604.5 244,-604.5"/>
</g>
<!-- QueryType&#45;&gt;Agency -->
<g id="edge2" class="edge"><title>QueryType&#45;&gt;Agency</title>
<path fill="none" stroke="black" d="M46.3211,-786.83C54.8546,-768.137 70.8116,-739.733 94,-725 135.573,-698.586 191.469,-691.19 233.6,-689.913"/>
<polygon fill="black" stroke="black" points="233.795,-693.41 243.725,-689.714 233.658,-686.411 233.795,-693.41"/>
<g id="a_edge2&#45;label"><a xlink:title="Get all agencies for the specified graph">
<text text-anchor="middle" x="145" y="-728.8" font-family="Times,serif" font-size="14.00">agencies</text>
</a>
</g>
</g>
<!-- QueryType&#45;&gt;Agency -->
<g id="edge3" class="edge"><title>QueryType&#45;&gt;Agency</title>
<path fill="none" stroke="black" d="M76.0785,-790.414C108.071,-777.648 155.398,-758.326 196,-740 208.644,-734.293 222.074,-727.923 234.804,-721.737"/>
<polygon fill="black" stroke="black" points="236.481,-724.813 243.929,-717.277 233.408,-718.524 236.481,-724.813"/>
<g id="a_edge3&#45;label"><a xlink:title="Get a single agency based on agency ID">
<text text-anchor="middle" x="145" y="-786.8" font-family="Times,serif" font-size="14.00">agency(...)</text>
</a>
</g>
</g>
<!-- Route -->
<g id="node4" class="node"><title>Route</title>
<polygon fill="#e535ab" stroke="none" points="531.5,-844 531.5,-865 636.5,-865 636.5,-844 531.5,-844"/>
<polygon fill="none" stroke="black" points="531.5,-844 531.5,-865 636.5,-865 636.5,-844 531.5,-844"/>
<text text-anchor="start" x="566.5" y="-851.8" font-family="Times,serif" font-weight="bold" font-size="14.00" fill="white">Route</text>
<text text-anchor="start" x="533.5" y="-830.8" font-family="Times,serif" font-size="14.00">id: ID!</text>
<text text-anchor="start" x="533.5" y="-811.8" font-family="Times,serif" font-size="14.00">gtfsId: String!</text>
<text text-anchor="start" x="533.5" y="-792.8" font-family="Times,serif" font-size="14.00">shortName: String</text>
<text text-anchor="start" x="533.5" y="-773.8" font-family="Times,serif" font-size="14.00">longName: String</text>
<text text-anchor="start" x="533.5" y="-754.8" font-family="Times,serif" font-size="14.00">type: String</text>
<text text-anchor="start" x="533.5" y="-735.8" font-family="Times,serif" font-size="14.00">desc: String</text>
<text text-anchor="start" x="533.5" y="-716.8" font-family="Times,serif" font-size="14.00">url: String</text>
<text text-anchor="start" x="533.5" y="-697.8" font-family="Times,serif" font-size="14.00">color: String</text>
<text text-anchor="start" x="533.5" y="-678.8" font-family="Times,serif" font-size="14.00">textColor: String</text>
<polygon fill="none" stroke="black" points="530,-672 530,-866 637,-866 637,-672 530,-672"/>
</g>
<!-- QueryType&#45;&gt;Route -->
<g id="edge8" class="edge"><title>QueryType&#45;&gt;Route</title>
<path fill="none" stroke="black" d="M73.4924,-823.093C80.1393,-825.88 87.1643,-828.37 94,-830 264.333,-870.626 321.178,-883.237 488,-830 499.264,-826.405 510.485,-821.099 521.055,-815.092"/>
<polygon fill="black" stroke="black" points="522.966,-818.027 529.767,-809.903 519.384,-812.013 522.966,-818.027"/>
<g id="a_edge8&#45;label"><a xlink:title="Get all routes for the specified graph">
<text text-anchor="middle" x="295" y="-869.8" font-family="Times,serif" font-size="14.00">routes(...)</text>
</a>
</g>
</g>
<!-- QueryType&#45;&gt;Route -->
<g id="edge9" class="edge"><title>QueryType&#45;&gt;Route</title>
<path fill="none" stroke="black" d="M76.1349,-804.902C107.961,-804.672 155.019,-803.984 196,-802 310.194,-796.473 442.902,-783.764 519.35,-775.829"/>
<polygon fill="black" stroke="black" points="520.174,-779.262 529.756,-774.743 519.447,-772.3 520.174,-779.262"/>
<g id="a_edge9&#45;label"><a xlink:title="Get a single route based on its id (format is Agency\:RouteId)">
<text text-anchor="middle" x="295" y="-804.8" font-family="Times,serif" font-size="14.00">route(...)</text>
</a>
</g>
</g>
<!-- Pattern -->
<g id="node6" class="node"><title>Pattern</title>
<polygon fill="#e535ab" stroke="none" points="2001,-664 2001,-685 2123,-685 2123,-664 2001,-664"/>
<polygon fill="none" stroke="black" points="2001,-664 2001,-685 2123,-685 2123,-664 2001,-664"/>
<text text-anchor="start" x="2040" y="-671.8" font-family="Times,serif" font-weight="bold" font-size="14.00" fill="white">Pattern</text>
<text text-anchor="start" x="2003" y="-650.8" font-family="Times,serif" font-size="14.00">id: ID!</text>
<text text-anchor="start" x="2003" y="-631.8" font-family="Times,serif" font-size="14.00">directionId: Int</text>
<text text-anchor="start" x="2003" y="-612.8" font-family="Times,serif" font-size="14.00">name: String</text>
<text text-anchor="start" x="2003" y="-593.8" font-family="Times,serif" font-size="14.00">code: String!</text>
<text text-anchor="start" x="2003" y="-574.8" font-family="Times,serif" font-size="14.00">headsign: String</text>
<text text-anchor="start" x="2003" y="-555.8" font-family="Times,serif" font-size="14.00">semanticHash: String</text>
<polygon fill="none" stroke="black" points="2000,-549.5 2000,-686.5 2124,-686.5 2124,-549.5 2000,-549.5"/>
</g>
<!-- QueryType&#45;&gt;Pattern -->
<g id="edge13" class="edge"><title>QueryType&#45;&gt;Pattern</title>
<path fill="none" stroke="black" d="M40.101,-823.124C43.7766,-877.167 57.5196,-1035.53 94,-1069 159.967,-1129.53 204.473,-1093 294,-1093 294,-1093 294,-1093 1775.5,-1093 1866.57,-1093 1916.71,-1135.44 1979,-1069 2004.87,-1041.4 1986.26,-765.273 1997,-729 2000.33,-717.752 2005.01,-706.429 2010.33,-695.537"/>
<polygon fill="black" stroke="black" points="2013.51,-697 2014.94,-686.501 2007.28,-693.819 2013.51,-697"/>
<g id="a_edge13&#45;label"><a xlink:title="Get all patterns for the specified graph">
<text text-anchor="middle" x="1043" y="-1096.8" font-family="Times,serif" font-size="14.00">patterns</text>
</a>
</g>
</g>
<!-- QueryType&#45;&gt;Pattern -->
<g id="edge14" class="edge"><title>QueryType&#45;&gt;Pattern</title>
<path fill="none" stroke="black" d="M41.4347,-823.052C47.8751,-868.122 66.7532,-983.843 94,-1010 159.726,-1073.1 202.889,-1055 294,-1055 294,-1055 294,-1055 1775.5,-1055 1924.7,-1055 1910.94,-920.776 1979,-788 1991.51,-763.603 1986.08,-754.148 1997,-729 2001.82,-717.891 2007.49,-706.486 2013.42,-695.414"/>
<polygon fill="black" stroke="black" points="2016.5,-697.072 2018.23,-686.618 2010.36,-693.717 2016.5,-697.072"/>
<g id="a_edge14&#45;label"><a xlink:title="Get a single pattern based on its id">
<text text-anchor="middle" x="1043" y="-1058.8" font-family="Times,serif" font-size="14.00">pattern(...)</text>
</a>
</g>
</g>
<!-- Trip -->
<g id="node7" class="node"><title>Trip</title>
<polygon fill="#e535ab" stroke="none" points="1707.5,-740 1707.5,-761 1842.5,-761 1842.5,-740 1707.5,-740"/>
<polygon fill="none" stroke="black" points="1707.5,-740 1707.5,-761 1842.5,-761 1842.5,-740 1707.5,-740"/>
<text text-anchor="start" x="1761.5" y="-747.8" font-family="Times,serif" font-weight="bold" font-size="14.00" fill="white">Trip</text>
<text text-anchor="start" x="1709.5" y="-726.8" font-family="Times,serif" font-size="14.00">id: ID!</text>
<text text-anchor="start" x="1709.5" y="-707.8" font-family="Times,serif" font-size="14.00">gtfsId: String!</text>
<text text-anchor="start" x="1709.5" y="-688.8" font-family="Times,serif" font-size="14.00">serviceId: String</text>
<text text-anchor="start" x="1709.5" y="-669.8" font-family="Times,serif" font-size="14.00">tripShortName: String</text>
<text text-anchor="start" x="1709.5" y="-650.8" font-family="Times,serif" font-size="14.00">tripHeadsign: String</text>
<text text-anchor="start" x="1709.5" y="-631.8" font-family="Times,serif" font-size="14.00">routeShortName: String</text>
<text text-anchor="start" x="1709.5" y="-612.8" font-family="Times,serif" font-size="14.00">directionId: String</text>
<text text-anchor="start" x="1709.5" y="-593.8" font-family="Times,serif" font-size="14.00">blockId: String</text>
<text text-anchor="start" x="1709.5" y="-574.8" font-family="Times,serif" font-size="14.00">shapeId: String</text>
<text text-anchor="start" x="1709.5" y="-555.8" font-family="Times,serif" font-size="14.00">geometry: String</text>
<polygon fill="none" stroke="black" points="1706,-549.5 1706,-762.5 1843,-762.5 1843,-549.5 1706,-549.5"/>
</g>
<!-- QueryType&#45;&gt;Trip -->
<g id="edge10" class="edge"><title>QueryType&#45;&gt;Trip</title>
<path fill="none" stroke="black" d="M39.1572,-823.098C40.508,-858.143 48.7735,-935.3 94,-975 161.936,-1034.63 203.603,-1012 294,-1012 294,-1012 294,-1012 1484.5,-1012 1576.43,-1012 1620.39,-1037.28 1688,-975 1717.98,-947.386 1741.03,-852.059 1755.6,-772.744"/>
<polygon fill="black" stroke="black" points="1759.09,-773.125 1757.42,-762.662 1752.2,-771.88 1759.09,-773.125"/>
<g id="a_edge10&#45;label"><a xlink:title="Get all trips for the specified graph">
<text text-anchor="middle" x="884.5" y="-1015.8" font-family="Times,serif" font-size="14.00">trips</text>
</a>
</g>
</g>
<!-- QueryType&#45;&gt;Trip -->
<g id="edge11" class="edge"><title>QueryType&#45;&gt;Trip</title>
<path fill="none" stroke="black" d="M42.0189,-823.15C47.4432,-849.706 61.4663,-898.73 94,-924 165.391,-979.452 203.603,-961 294,-961 294,-961 294,-961 1484.5,-961 1576.43,-961 1618.94,-984.679 1688,-924 1731.26,-885.989 1752.81,-826.139 1763.47,-772.631"/>
<polygon fill="black" stroke="black" points="1766.92,-773.195 1765.33,-762.72 1760.04,-771.9 1766.92,-773.195"/>
<g id="a_edge11&#45;label"><a xlink:title="Get a single trip based on its id (format is Agency\:TripId)">
<text text-anchor="middle" x="884.5" y="-964.8" font-family="Times,serif" font-size="14.00">trip(...)</text>
</a>
</g>
</g>
<!-- QueryType&#45;&gt;Trip -->
<g id="edge12" class="edge"><title>QueryType&#45;&gt;Trip</title>
<path fill="none" stroke="black" d="M54.627,-823.444C64.8095,-834.374 78.9624,-847.673 94,-856 174.548,-900.601 201.928,-910 294,-910 294,-910 294,-910 1484.5,-910 1575.49,-910 1651.47,-838.09 1702.65,-770.794"/>
<polygon fill="black" stroke="black" points="1705.58,-772.719 1708.77,-762.615 1699.98,-768.526 1705.58,-772.719"/>
<text text-anchor="middle" x="884.5" y="-913.8" font-family="Times,serif" font-size="14.00">fuzzyTrip(...)</text>
</g>
<!-- Stop -->
<g id="node9" class="node"><title>Stop</title>
<polygon fill="#e535ab" stroke="none" points="824.5,-562 824.5,-583 945.5,-583 945.5,-562 824.5,-562"/>
<polygon fill="none" stroke="black" points="824.5,-562 824.5,-583 945.5,-583 945.5,-562 824.5,-562"/>
<text text-anchor="start" x="871.5" y="-569.8" font-family="Times,serif" font-weight="bold" font-size="14.00" fill="white">Stop</text>
<text text-anchor="start" x="826.5" y="-548.8" font-family="Times,serif" font-size="14.00">id: ID!</text>
<text text-anchor="start" x="826.5" y="-529.8" font-family="Times,serif" font-size="14.00">gtfsId: String!</text>
<text text-anchor="start" x="826.5" y="-510.8" font-family="Times,serif" font-size="14.00">name: String!</text>
<text text-anchor="start" x="826.5" y="-491.8" font-family="Times,serif" font-size="14.00">lat: Float!</text>
<text text-anchor="start" x="826.5" y="-472.8" font-family="Times,serif" font-size="14.00">lon: Float!</text>
<text text-anchor="start" x="826.5" y="-453.8" font-family="Times,serif" font-size="14.00">code: String</text>
<text text-anchor="start" x="826.5" y="-434.8" font-family="Times,serif" font-size="14.00">desc: String</text>
<text text-anchor="start" x="826.5" y="-415.8" font-family="Times,serif" font-size="14.00">zoneId: String</text>
<text text-anchor="start" x="826.5" y="-396.8" font-family="Times,serif" font-size="14.00">url: String</text>
<text text-anchor="start" x="826.5" y="-377.8" font-family="Times,serif" font-size="14.00">direction: String</text>
<text text-anchor="start" x="826.5" y="-358.8" font-family="Times,serif" font-size="14.00">timezone: String</text>
<text text-anchor="start" x="826.5" y="-339.8" font-family="Times,serif" font-size="14.00">vehicleType: Int</text>
<text text-anchor="start" x="826.5" y="-320.8" font-family="Times,serif" font-size="14.00">platformCode: String</text>
<polygon fill="none" stroke="black" points="823,-314 823,-584 946,-584 946,-314 823,-314"/>
</g>
<!-- QueryType&#45;&gt;Stop -->
<g id="edge4" class="edge"><title>QueryType&#45;&gt;Stop</title>
<path fill="none" stroke="black" d="M39.0561,-786.88C40.1061,-748.172 47.6715,-656.365 94,-600 131.737,-554.088 157.106,-558.18 214,-541 467.578,-464.428 543.462,-505.987 805,-464 807.517,-463.596 810.078,-463.172 812.662,-462.735"/>
<polygon fill="black" stroke="black" points="813.457,-466.149 822.708,-460.985 812.255,-459.253 813.457,-466.149"/>
<g id="a_edge4&#45;label"><a xlink:title="Get all stops for the specified graph">
<text text-anchor="middle" x="441" y="-503.8" font-family="Times,serif" font-size="14.00">stops(...)</text>
</a>
</g>
</g>
<!-- QueryType&#45;&gt;Stop -->
<g id="edge5" class="edge"><title>QueryType&#45;&gt;Stop</title>
<path fill="none" stroke="black" d="M40.5273,-786.997C45.359,-734.024 61.9217,-580.085 94,-543 186.524,-436.036 636.786,-440.084 812.793,-445.958"/>
<polygon fill="black" stroke="black" points="812.864,-449.462 822.979,-446.31 813.107,-442.466 812.864,-449.462"/>
<g id="a_edge5&#45;label"><a xlink:title="Get all stops within the specified bounding box">
<text text-anchor="middle" x="441" y="-458.8" font-family="Times,serif" font-size="14.00">stopsByBbox(...)</text>
</a>
</g>
</g>
<!-- QueryType&#45;&gt;Stop -->
<g id="edge7" class="edge"><title>QueryType&#45;&gt;Stop</title>
<path fill="none" stroke="black" d="M39.6398,-786.942C42.155,-726.243 53.3219,-530.857 94,-486 278.41,-282.647 656.759,-374.533 813.3,-424.399"/>
<polygon fill="black" stroke="black" points="812.246,-427.737 822.838,-427.473 814.393,-421.074 812.246,-427.737"/>
<g id="a_edge7&#45;label"><a xlink:title="Get a single stop based on its id (format is Agency\:StopId)">
<text text-anchor="middle" x="441" y="-364.8" font-family="Times,serif" font-size="14.00">stop(...)</text>
</a>
</g>
</g>
<!-- Cluster -->
<g id="node11" class="node"><title>Cluster</title>
<polygon fill="#e535ab" stroke="none" points="1181,-164 1181,-185 1262,-185 1262,-164 1181,-164"/>
<polygon fill="none" stroke="black" points="1181,-164 1181,-185 1262,-185 1262,-164 1181,-164"/>
<text text-anchor="start" x="1200" y="-171.8" font-family="Times,serif" font-weight="bold" font-size="14.00" fill="white">Cluster</text>
<text text-anchor="start" x="1183" y="-150.8" font-family="Times,serif" font-size="14.00">id: ID!</text>
<text text-anchor="start" x="1183" y="-131.8" font-family="Times,serif" font-size="14.00">gtfsId: String!</text>
<text text-anchor="start" x="1183" y="-112.8" font-family="Times,serif" font-size="14.00">name: String!</text>
<text text-anchor="start" x="1183" y="-93.8" font-family="Times,serif" font-size="14.00">lat: Float!</text>
<text text-anchor="start" x="1183" y="-74.8" font-family="Times,serif" font-size="14.00">lon: Float!</text>
<polygon fill="none" stroke="black" points="1179.5,-68 1179.5,-186 1262.5,-186 1262.5,-68 1179.5,-68"/>
</g>
<!-- QueryType&#45;&gt;Cluster -->
<g id="edge15" class="edge"><title>QueryType&#45;&gt;Cluster</title>
<path fill="none" stroke="black" d="M38.9509,-786.945C39.3225,-729.596 44.5792,-547.115 94,-407 151.426,-244.189 121.358,-74 294,-74 294,-74 294,-74 885.5,-74 987.217,-74 1104.21,-98.2027 1169.39,-113.898"/>
<polygon fill="black" stroke="black" points="1168.85,-117.368 1179.39,-116.338 1170.51,-110.568 1168.85,-117.368"/>
<g id="a_edge15&#45;label"><a xlink:title="Get all clusters for the specified graph">
<text text-anchor="middle" x="583.5" y="-77.8" font-family="Times,serif" font-size="14.00">clusters</text>
</a>
</g>
</g>
<!-- QueryType&#45;&gt;Cluster -->
<g id="edge16" class="edge"><title>QueryType&#45;&gt;Cluster</title>
<path fill="none" stroke="black" d="M39.2864,-786.813C41.0836,-682.09 52.1233,-158.676 94,-102 150.794,-25.1338 198.428,-23 294,-23 294,-23 294,-23 885.5,-23 993.122,-23 1020.98,-37.8812 1122,-75 1138.17,-80.9413 1155,-89.0782 1170.06,-97.1513"/>
<polygon fill="black" stroke="black" points="1168.73,-100.415 1179.19,-102.15 1172.1,-94.276 1168.73,-100.415"/>
<g id="a_edge16&#45;label"><a xlink:title="Get a single cluster based on its id">
<text text-anchor="middle" x="583.5" y="-26.8" font-family="Times,serif" font-size="14.00">cluster(...)</text>
</a>
</g>
</g>
<!-- stopAtDistanceConnection -->
<g id="node16" class="node"><title>stopAtDistanceConnection</title>
<polygon fill="#e535ab" stroke="none" points="215,-557 215,-578 375,-578 375,-557 215,-557"/>
<polygon fill="none" stroke="black" points="215,-557 215,-578 375,-578 375,-557 215,-557"/>
<text text-anchor="start" x="218" y="-564.8" font-family="Times,serif" font-weight="bold" font-size="14.00" fill="white">stopAtDistanceConnection</text>
<polygon fill="none" stroke="black" points="214,-556.5 214,-579.5 376,-579.5 376,-556.5 214,-556.5"/>
</g>
<!-- QueryType&#45;&gt;stopAtDistanceConnection -->
<g id="edge6" class="edge"><title>QueryType&#45;&gt;stopAtDistanceConnection</title>
<path fill="none" stroke="black" d="M43.1125,-786.862C49.9319,-760.006 65.7137,-709.167 94,-675 127.853,-634.11 181.51,-606.614 224.728,-589.744"/>
<polygon fill="black" stroke="black" points="226.233,-592.917 234.342,-586.098 223.751,-586.372 226.233,-592.917"/>
<g id="a_edge6&#45;label"><a xlink:title="Get all stops within the specified radius from a location. The returned type has two fields stop and distance">
<text text-anchor="middle" x="145" y="-678.8" font-family="Times,serif" font-size="14.00">stopsByRadius(...)</text>
</a>
</g>
</g>
<!-- Agency&#45;&gt;Route -->
<g id="edge18" class="edge"><title>Agency&#45;&gt;Route</title>
<path fill="none" stroke="black" d="M346.001,-707.198C361.364,-711.76 378.347,-716.693 394,-721 435.815,-732.506 483.115,-744.548 519.873,-753.692"/>
<polygon fill="black" stroke="black" points="519.4,-757.181 529.948,-756.192 521.085,-750.387 519.4,-757.181"/>
<text text-anchor="middle" x="441" y="-749.8" font-family="Times,serif" font-size="14.00">routes</text>
</g>
<!-- Route&#45;&gt;Agency -->
<g id="edge19" class="edge"><title>Route&#45;&gt;Agency</title>
<path fill="none" stroke="black" d="M529.96,-723.992C517.006,-715.169 502.628,-707.082 488,-702 445.743,-687.318 395.107,-685.268 356.448,-686.648"/>
<polygon fill="black" stroke="black" points="356.221,-683.155 346.386,-687.094 356.531,-690.148 356.221,-683.155"/>
<text text-anchor="middle" x="441" y="-705.8" font-family="Times,serif" font-size="14.00">agency</text>
</g>
<!-- BikesAllowed -->
<g id="node5" class="node"><title>BikesAllowed</title>
<polygon fill="#e535ab" stroke="none" points="1999,-795 1999,-829 2125,-829 2125,-795 1999,-795"/>
<polygon fill="none" stroke="black" points="1999,-795 1999,-829 2125,-829 2125,-795 1999,-795"/>
<text text-anchor="start" x="2022.5" y="-815.8" font-family="Times,serif" font-weight="bold" font-size="14.00" fill="white">BikesAllowed</text>
<text text-anchor="start" x="2039.5" y="-801.8" font-family="Times,serif" font-size="14.00" fill="white">«enum»</text>
<text text-anchor="start" x="2001" y="-781.8" font-family="Times,serif" font-size="14.00">NO_INFORMATION</text>
<text text-anchor="start" x="2001" y="-762.8" font-family="Times,serif" font-size="14.00">ALLOWED</text>
<text text-anchor="start" x="2001" y="-743.8" font-family="Times,serif" font-size="14.00">NOT_ALLOWED</text>
<polygon fill="none" stroke="black" points="1998,-737.5 1998,-830.5 2126,-830.5 2126,-737.5 1998,-737.5"/>
</g>
<!-- Route&#45;&gt;BikesAllowed -->
<g id="edge20" class="edge"><title>Route&#45;&gt;BikesAllowed</title>
<path fill="none" stroke="black" d="M637.37,-796.596C650.656,-802.534 665.098,-808.17 679,-812 741.081,-829.104 758.914,-821.714 823,-828 963.267,-841.759 1323.91,-872 1357.5,-872 1357.5,-872 1357.5,-872 1775.5,-872 1850.55,-872 1931.97,-843.887 1988.58,-819.441"/>
<polygon fill="black" stroke="black" points="1990.05,-822.619 1997.8,-815.397 1987.24,-816.209 1990.05,-822.619"/>
<text text-anchor="middle" x="1358.5" y="-875.8" font-family="Times,serif" font-size="14.00">bikesAllowed</text>
</g>
<!-- Route&#45;&gt;Pattern -->
<g id="edge21" class="edge"><title>Route&#45;&gt;Pattern</title>
<path fill="none" stroke="black" d="M637.269,-765.504C766.727,-757.408 1110.39,-738.81 1397,-749 1534.59,-753.892 1568.41,-766.108 1706,-771 1766.85,-773.163 1782.12,-772.119 1843,-771 1903.48,-769.889 1928.32,-799.015 1979,-766 1994.32,-756.018 1988.43,-745.153 1997,-729 2002.8,-718.069 2009.1,-706.648 2015.41,-695.465"/>
<polygon fill="black" stroke="black" points="2018.57,-696.986 2020.47,-686.562 2012.49,-693.53 2018.57,-696.986"/>
<text text-anchor="middle" x="1358.5" y="-752.8" font-family="Times,serif" font-size="14.00">patterns</text>
</g>
<!-- Route&#45;&gt;Trip -->
<g id="edge23" class="edge"><title>Route&#45;&gt;Trip</title>
<path fill="none" stroke="black" d="M637.147,-771.543C696.862,-774.204 797.161,-778 883.5,-778 883.5,-778 883.5,-778 1484.5,-778 1561.14,-778 1640.85,-741.136 1697.09,-707.936"/>
<polygon fill="black" stroke="black" points="1699.14,-710.79 1705.91,-702.645 1695.54,-704.787 1699.14,-710.79"/>
<text text-anchor="middle" x="1221" y="-781.8" font-family="Times,serif" font-size="14.00">trips</text>
</g>
<!-- Route&#45;&gt;Stop -->
<g id="edge22" class="edge"><title>Route&#45;&gt;Stop</title>
<path fill="none" stroke="black" d="M637.166,-699.629C649.623,-687.092 663.764,-675.364 679,-667 728.901,-639.606 760.891,-679.985 805,-644 821.798,-630.296 835.026,-612.453 845.438,-593.128"/>
<polygon fill="black" stroke="black" points="848.59,-594.652 850.027,-584.155 842.358,-591.465 848.59,-594.652"/>
<text text-anchor="middle" x="742" y="-670.8" font-family="Times,serif" font-size="14.00">stops</text>
</g>
<!-- Pattern&#45;&gt;Route -->
<g id="edge24" class="edge"><title>Pattern&#45;&gt;Route</title>
<path fill="none" stroke="black" d="M2003.35,-549.327C1995.75,-543.573 1987.6,-538.592 1979,-535 1867.02,-488.217 1800.86,-465.302 1706,-541 1681.9,-560.232 1710.3,-586.704 1688,-608 1524.18,-764.454 903.308,-721.383 679,-753 668.761,-754.443 657.925,-756.128 647.385,-757.853"/>
<polygon fill="black" stroke="black" points="646.69,-754.421 637.399,-759.513 647.837,-761.326 646.69,-754.421"/>
<text text-anchor="middle" x="1358.5" y="-722.8" font-family="Times,serif" font-size="14.00">route</text>
</g>
<!-- Pattern&#45;&gt;Trip -->
<g id="edge25" class="edge"><title>Pattern&#45;&gt;Trip</title>
<path fill="none" stroke="black" d="M1999.75,-630.54C1992.77,-631.795 1985.74,-632.98 1979,-634 1937.55,-640.272 1891.1,-645.435 1853.05,-649.179"/>
<polygon fill="black" stroke="black" points="1852.67,-645.699 1843.06,-650.149 1853.35,-652.667 1852.67,-645.699"/>
<text text-anchor="middle" x="1920" y="-652.8" font-family="Times,serif" font-size="14.00">trips</text>
</g>
<!-- Pattern&#45;&gt;Stop -->
<g id="edge26" class="edge"><title>Pattern&#45;&gt;Stop</title>
<path fill="none" stroke="black" d="M2020.79,-549.41C2008.97,-533.726 1994.89,-518.352 1979,-507 1725.58,-325.937 1612.17,-354.298 1302,-326 1230.3,-319.458 1210.65,-312.108 1140,-326 1057.07,-342.306 1038.88,-358.805 964,-398 960.956,-399.593 957.879,-401.271 954.796,-403.009"/>
<polygon fill="black" stroke="black" points="953.008,-400 946.113,-408.044 956.519,-406.056 953.008,-400"/>
<text text-anchor="middle" x="1483.5" y="-348.8" font-family="Times,serif" font-size="14.00">stops</text>
</g>
<!-- Coordinates -->
<g id="node15" class="node"><title>Coordinates</title>
<polygon fill="#e535ab" stroke="none" points="2216.5,-626 2216.5,-647 2293.5,-647 2293.5,-626 2216.5,-626"/>
<polygon fill="none" stroke="black" points="2216.5,-626 2216.5,-647 2293.5,-647 2293.5,-626 2216.5,-626"/>
<text text-anchor="start" x="2219.5" y="-633.8" font-family="Times,serif" font-weight="bold" font-size="14.00" fill="white">Coordinates</text>
<text text-anchor="start" x="2218.5" y="-612.8" font-family="Times,serif" font-size="14.00">lat: Float</text>
<text text-anchor="start" x="2218.5" y="-593.8" font-family="Times,serif" font-size="14.00">lon: Float</text>
<polygon fill="none" stroke="black" points="2215,-587.5 2215,-648.5 2294,-648.5 2294,-587.5 2215,-587.5"/>
</g>
<!-- Pattern&#45;&gt;Coordinates -->
<g id="edge27" class="edge"><title>Pattern&#45;&gt;Coordinates</title>
<path fill="none" stroke="black" d="M2124.06,-618C2150.15,-618 2180.19,-618 2204.76,-618"/>
<polygon fill="black" stroke="black" points="2204.93,-621.5 2214.93,-618 2204.93,-614.5 2204.93,-621.5"/>
<text text-anchor="middle" x="2171" y="-621.8" font-family="Times,serif" font-size="14.00">geometry</text>
</g>
<!-- Trip&#45;&gt;Route -->
<g id="edge28" class="edge"><title>Trip&#45;&gt;Route</title>
<path fill="none" stroke="black" d="M1705.88,-739.792C1700.15,-744.629 1694.17,-749.101 1688,-753 1634.85,-786.604 1614.18,-782.626 1552,-792 1168.33,-849.842 1064.35,-835.264 679,-790 668.628,-788.782 657.723,-786.917 647.155,-784.793"/>
<polygon fill="black" stroke="black" points="647.661,-781.323 637.155,-782.688 646.22,-788.173 647.661,-781.323"/>
<text text-anchor="middle" x="1221" y="-833.8" font-family="Times,serif" font-size="14.00">route</text>
</g>
<!-- Trip&#45;&gt;BikesAllowed -->
<g id="edge30" class="edge"><title>Trip&#45;&gt;BikesAllowed</title>
<path fill="none" stroke="black" d="M1843.16,-686.334C1886.88,-705.936 1943.74,-731.427 1988.4,-751.451"/>
<polygon fill="black" stroke="black" points="1987.18,-754.74 1997.74,-755.637 1990.04,-748.353 1987.18,-754.74"/>
<text text-anchor="middle" x="1920" y="-750.8" font-family="Times,serif" font-size="14.00">bikesAllowed</text>
</g>
<!-- Trip&#45;&gt;Pattern -->
<g id="edge31" class="edge"><title>Trip&#45;&gt;Pattern</title>
<path fill="none" stroke="black" d="M1843.12,-620.287C1849.05,-618.167 1855.06,-616.35 1861,-615 1902.96,-605.459 1951.17,-605.858 1989.74,-608.81"/>
<polygon fill="black" stroke="black" points="1989.58,-612.308 1999.83,-609.657 1990.16,-605.333 1989.58,-612.308"/>
<text text-anchor="middle" x="1920" y="-618.8" font-family="Times,serif" font-size="14.00">pattern</text>
</g>
<!-- WheelchairBoarding -->
<g id="node8" class="node"><title>WheelchairBoarding</title>
<polygon fill="#e535ab" stroke="none" points="1998,-274 1998,-308 2126,-308 2126,-274 1998,-274"/>
<polygon fill="none" stroke="black" points="1998,-274 1998,-308 2126,-308 2126,-274 1998,-274"/>
<text text-anchor="start" x="2001" y="-294.8" font-family="Times,serif" font-weight="bold" font-size="14.00" fill="white">WheelchairBoarding</text>
<text text-anchor="start" x="2039.5" y="-280.8" font-family="Times,serif" font-size="14.00" fill="white">«enum»</text>
<text text-anchor="start" x="2000" y="-260.8" font-family="Times,serif" font-size="14.00">NO_INFORMATION</text>
<text text-anchor="start" x="2000" y="-241.8" font-family="Times,serif" font-size="14.00">POSSIBLE</text>
<text text-anchor="start" x="2000" y="-222.8" font-family="Times,serif" font-size="14.00">NOT_POSSIBLE</text>
<polygon fill="none" stroke="black" points="1997,-216.5 1997,-309.5 2127,-309.5 2127,-216.5 1997,-216.5"/>
</g>
<!-- Trip&#45;&gt;WheelchairBoarding -->
<g id="edge29" class="edge"><title>Trip&#45;&gt;WheelchairBoarding</title>
<path fill="none" stroke="black" d="M1843.16,-562.864C1898.55,-486.617 1975.03,-381.342 2021.08,-317.95"/>
<polygon fill="black" stroke="black" points="2024.05,-319.819 2027.1,-309.671 2018.39,-315.704 2024.05,-319.819"/>
<text text-anchor="middle" x="1920" y="-532.8" font-family="Times,serif" font-size="14.00">wheelchairAccessible</text>
</g>
<!-- Trip&#45;&gt;Stop -->
<g id="edge32" class="edge"><title>Trip&#45;&gt;Stop</title>
<path fill="none" stroke="black" d="M1705.76,-655.697C1516.58,-654.591 994.448,-649.672 964,-629 949.971,-619.475 938.43,-606.857 928.94,-592.706"/>
<polygon fill="black" stroke="black" points="931.878,-590.804 923.586,-584.21 925.956,-594.536 931.878,-590.804"/>
<text text-anchor="middle" x="1358.5" y="-656.8" font-family="Times,serif" font-size="14.00">stops</text>
</g>
<!-- Trip&#45;&gt;Stop -->
<g id="edge33" class="edge"><title>Trip&#45;&gt;Stop</title>
<path fill="none" stroke="black" d="M1705.8,-651.631C1516.74,-639.201 994.895,-603.233 964,-583 960.384,-580.632 956.913,-578.035 953.583,-575.247"/>
<polygon fill="black" stroke="black" points="955.821,-572.551 946.068,-568.413 951.112,-577.73 955.821,-572.551"/>
<text text-anchor="middle" x="1358.5" y="-633.8" font-family="Times,serif" font-size="14.00">semanticHash</text>
</g>
<!-- Stoptime -->
<g id="node14" class="node"><title>Stoptime</title>
<polygon fill="#e535ab" stroke="none" points="1416.5,-568 1416.5,-589 1551.5,-589 1551.5,-568 1416.5,-568"/>
<polygon fill="none" stroke="black" points="1416.5,-568 1416.5,-589 1551.5,-589 1551.5,-568 1416.5,-568"/>
<text text-anchor="start" x="1457.5" y="-575.8" font-family="Times,serif" font-weight="bold" font-size="14.00" fill="white">Stoptime</text>
<text text-anchor="start" x="1418.5" y="-554.8" font-family="Times,serif" font-size="14.00">scheduledArrival: Int</text>
<text text-anchor="start" x="1418.5" y="-535.8" font-family="Times,serif" font-size="14.00">realtimeArrival: Int</text>
<text text-anchor="start" x="1418.5" y="-516.8" font-family="Times,serif" font-size="14.00">arrivalDelay: Int</text>
<text text-anchor="start" x="1418.5" y="-497.8" font-family="Times,serif" font-size="14.00">scheduledDeparture: Int</text>
<text text-anchor="start" x="1418.5" y="-478.8" font-family="Times,serif" font-size="14.00">realtimeDeparture: Int</text>
<text text-anchor="start" x="1418.5" y="-459.8" font-family="Times,serif" font-size="14.00">departureDelay: Int</text>
<text text-anchor="start" x="1418.5" y="-440.8" font-family="Times,serif" font-size="14.00">timepoint: Boolean</text>
<text text-anchor="start" x="1418.5" y="-421.8" font-family="Times,serif" font-size="14.00">realtime: Boolean</text>
<text text-anchor="start" x="1418.5" y="-402.8" font-family="Times,serif" font-size="14.00">serviceDay: Long</text>
<polygon fill="none" stroke="black" points="1415,-396 1415,-590 1552,-590 1552,-396 1415,-396"/>
</g>
<!-- Trip&#45;&gt;Stoptime -->
<g id="edge34" class="edge"><title>Trip&#45;&gt;Stoptime</title>
<path fill="none" stroke="black" d="M1730.61,-549.219C1719.22,-532.212 1705.16,-516.718 1688,-506 1651.05,-482.921 1602.59,-479.028 1562.23,-481.207"/>
<polygon fill="black" stroke="black" points="1561.9,-477.721 1552.16,-481.884 1562.37,-484.706 1561.9,-477.721"/>
<text text-anchor="middle" x="1629" y="-509.8" font-family="Times,serif" font-size="14.00">stoptimes</text>
</g>
<!-- Trip&#45;&gt;Stoptime -->
<g id="edge35" class="edge"><title>Trip&#45;&gt;Stoptime</title>
<path fill="none" stroke="black" d="M1705.68,-598.764C1699.89,-595.156 1693.96,-591.84 1688,-589 1639.44,-565.851 1618.4,-585.497 1570,-562 1567,-560.542 1564.01,-558.961 1561.04,-557.281"/>
<polygon fill="black" stroke="black" points="1562.59,-554.128 1552.22,-551.965 1558.97,-560.124 1562.59,-554.128"/>
<text text-anchor="middle" x="1629" y="-592.8" font-family="Times,serif" font-size="14.00">stoptimesForDate(...)</text>
</g>
<!-- Stop&#45;&gt;Route -->
<g id="edge40" class="edge"><title>Stop&#45;&gt;Route</title>
<path fill="none" stroke="black" d="M827.994,-584.334C821.144,-592.453 813.505,-599.82 805,-606 759.186,-639.292 725.401,-592.531 679,-625 665.312,-634.578 669.752,-643.769 661,-658 655.215,-667.406 648.965,-677.114 642.616,-686.695"/>
<polygon fill="black" stroke="black" points="639.665,-684.812 637.021,-695.071 645.486,-688.7 639.665,-684.812"/>
<text text-anchor="middle" x="742" y="-628.8" font-family="Times,serif" font-size="14.00">routes</text>
</g>
<!-- Stop&#45;&gt;Pattern -->
<g id="edge41" class="edge"><title>Stop&#45;&gt;Pattern</title>
<path fill="none" stroke="black" d="M946.183,-341.225C951.719,-335.919 957.655,-331.102 964,-327 1112.51,-230.984 1180.66,-268 1357.5,-268 1357.5,-268 1357.5,-268 1775.5,-268 1914.85,-268 1998.3,-436.645 2036.32,-539.806"/>
<polygon fill="black" stroke="black" points="2033.05,-541.059 2039.75,-549.269 2039.63,-538.675 2033.05,-541.059"/>
<text text-anchor="middle" x="1483.5" y="-271.8" font-family="Times,serif" font-size="14.00">patterns</text>
</g>
<!-- Stop&#45;&gt;WheelchairBoarding -->
<g id="edge38" class="edge"><title>Stop&#45;&gt;WheelchairBoarding</title>
<path fill="none" stroke="black" d="M903.18,-313.681C916.229,-233.693 936.501,-142.441 964,-113 1085.41,16.9893 1179.63,-40 1357.5,-40 1357.5,-40 1357.5,-40 1775.5,-40 1884.37,-40 1976.54,-141.954 2024.82,-207.987"/>
<polygon fill="black" stroke="black" points="2022.09,-210.182 2030.77,-216.252 2027.77,-206.092 2022.09,-210.182"/>
<text text-anchor="middle" x="1483.5" y="-43.8" font-family="Times,serif" font-size="14.00">wheelchairBoarding</text>
</g>
<!-- Stop&#45;&gt;Stop -->
<g id="edge37" class="edge"><title>Stop&#45;&gt;Stop</title>
<path fill="none" stroke="black" d="M864.021,-584.034C868.452,-595.117 875.278,-602 884.5,-602 890.84,-602 896.048,-598.747 900.123,-593.112"/>
<polygon fill="black" stroke="black" points="903.349,-594.502 904.979,-584.034 897.176,-591.201 903.349,-594.502"/>
<text text-anchor="middle" x="884.5" y="-605.8" font-family="Times,serif" font-size="14.00">parentStation</text>
</g>
<!-- LocationType -->
<g id="node10" class="node"><title>LocationType</title>
<polygon fill="#e535ab" stroke="none" points="1178,-392 1178,-426 1265,-426 1265,-392 1178,-392"/>
<polygon fill="none" stroke="black" points="1178,-392 1178,-426 1265,-426 1265,-392 1178,-392"/>
<text text-anchor="start" x="1181" y="-412.8" font-family="Times,serif" font-weight="bold" font-size="14.00" fill="white">LocationType</text>
<text text-anchor="start" x="1199" y="-398.8" font-family="Times,serif" font-size="14.00" fill="white">«enum»</text>
<text text-anchor="start" x="1180" y="-378.8" font-family="Times,serif" font-size="14.00">STOP</text>
<text text-anchor="start" x="1180" y="-359.8" font-family="Times,serif" font-size="14.00">STATION</text>
<text text-anchor="start" x="1180" y="-340.8" font-family="Times,serif" font-size="14.00">ENTRANCE</text>
<polygon fill="none" stroke="black" points="1176.5,-334.5 1176.5,-427.5 1265.5,-427.5 1265.5,-334.5 1176.5,-334.5"/>
</g>
<!-- Stop&#45;&gt;LocationType -->
<g id="edge36" class="edge"><title>Stop&#45;&gt;LocationType</title>
<path fill="none" stroke="black" d="M946.075,-436.686C1008.9,-423.914 1106.19,-404.136 1166.33,-391.91"/>
<polygon fill="black" stroke="black" points="1167.28,-395.289 1176.38,-389.867 1165.89,-388.429 1167.28,-395.289"/>
<text text-anchor="middle" x="1043" y="-436.8" font-family="Times,serif" font-size="14.00">locationType</text>
</g>
<!-- Stop&#45;&gt;Cluster -->
<g id="edge39" class="edge"><title>Stop&#45;&gt;Cluster</title>
<path fill="none" stroke="black" d="M895.435,-313.849C905.821,-264.669 925.868,-212.695 964,-178 1016.87,-129.897 1051.94,-162.156 1122,-148 1137.24,-144.92 1153.79,-141.431 1168.87,-138.194"/>
<polygon fill="black" stroke="black" points="1170,-141.53 1179.04,-136.001 1168.53,-134.687 1170,-141.53"/>
<text text-anchor="middle" x="1043" y="-181.8" font-family="Times,serif" font-size="14.00">cluster</text>
</g>
<!-- stopAtDistance -->
<g id="node12" class="node"><title>stopAtDistance</title>
<polygon fill="#e535ab" stroke="none" points="1174,-517 1174,-538 1268,-538 1268,-517 1174,-517"/>
<polygon fill="none" stroke="black" points="1174,-517 1174,-538 1268,-538 1268,-517 1174,-517"/>
<text text-anchor="start" x="1177" y="-524.8" font-family="Times,serif" font-weight="bold" font-size="14.00" fill="white">stopAtDistance</text>
<text text-anchor="start" x="1176" y="-503.8" font-family="Times,serif" font-size="14.00">distance: Int</text>
<polygon fill="none" stroke="black" points="1173,-497 1173,-539 1269,-539 1269,-497 1173,-497"/>
</g>
<!-- Stop&#45;&gt;stopAtDistance -->
<g id="edge42" class="edge"><title>Stop&#45;&gt;stopAtDistance</title>
<path fill="none" stroke="black" d="M946.145,-504.454C951.91,-507.828 957.892,-510.758 964,-513 1028.88,-536.814 1109.38,-533.546 1162.6,-527.308"/>
<polygon fill="black" stroke="black" points="1163.04,-530.779 1172.53,-526.071 1162.18,-523.833 1163.04,-530.779"/>
<text text-anchor="middle" x="1043" y="-535.8" font-family="Times,serif" font-size="14.00">transfers</text>
</g>
<!-- StoptimesInPattern -->
<g id="node13" class="node"><title>StoptimesInPattern</title>
<polygon fill="#e535ab" stroke="none" points="1160,-211 1160,-232 1282,-232 1282,-211 1160,-211"/>
<polygon fill="none" stroke="black" points="1160,-211 1160,-232 1282,-232 1282,-211 1160,-211"/>
<text text-anchor="start" x="1163.5" y="-218.8" font-family="Times,serif" font-weight="bold" font-size="14.00" fill="white">StoptimesInPattern</text>
<polygon fill="none" stroke="black" points="1159,-210.5 1159,-233.5 1283,-233.5 1283,-210.5 1159,-210.5"/>
</g>
<!-- Stop&#45;&gt;StoptimesInPattern -->
<g id="edge43" class="edge"><title>Stop&#45;&gt;StoptimesInPattern</title>
<path fill="none" stroke="black" d="M899.234,-313.887C910.371,-273.63 929.928,-233.704 964,-209 992.428,-188.389 1083.09,-198.128 1148.45,-208.632"/>
<polygon fill="black" stroke="black" points="1148.27,-212.15 1158.71,-210.32 1149.41,-205.243 1148.27,-212.15"/>
<text text-anchor="middle" x="1043" y="-212.8" font-family="Times,serif" font-size="14.00">stoptimesForServiceDate(...)</text>
</g>
<!-- Stop&#45;&gt;StoptimesInPattern -->
<g id="edge44" class="edge"><title>Stop&#45;&gt;StoptimesInPattern</title>
<path fill="none" stroke="black" d="M914.243,-313.904C925.681,-288.121 941.664,-263.936 964,-247 978.478,-236.023 1078.01,-228.899 1148.6,-225.165"/>
<polygon fill="black" stroke="black" points="1148.99,-228.65 1158.79,-224.639 1148.63,-221.659 1148.99,-228.65"/>
<text text-anchor="middle" x="1043" y="-250.8" font-family="Times,serif" font-size="14.00">stoptimesForPatterns(...)</text>
</g>
<!-- Stop&#45;&gt;Stoptime -->
<g id="edge45" class="edge"><title>Stop&#45;&gt;Stoptime</title>
<path fill="none" stroke="black" d="M946.271,-451.495C1027.44,-455.059 1175.7,-462.371 1302,-473 1335.74,-475.839 1372.93,-479.815 1404.74,-483.475"/>
<polygon fill="black" stroke="black" points="1404.53,-486.974 1414.87,-484.65 1405.34,-480.021 1404.53,-486.974"/>
<text text-anchor="middle" x="1221" y="-476.8" font-family="Times,serif" font-size="14.00">stoptimesWithoutPatterns(...)</text>
</g>
<!-- Cluster&#45;&gt;Stop -->
<g id="edge46" class="edge"><title>Cluster&#45;&gt;Stop</title>
<path fill="none" stroke="black" d="M1179.29,-121.492C1115.58,-113.812 996.25,-103.501 964,-129 935.55,-151.494 916.024,-230.219 903.562,-303.949"/>
<polygon fill="black" stroke="black" points="900.104,-303.408 901.926,-313.845 907.01,-304.55 900.104,-303.408"/>
<text text-anchor="middle" x="1043" y="-132.8" font-family="Times,serif" font-size="14.00">stops</text>
</g>
<!-- stopAtDistance&#45;&gt;Stop -->
<g id="edge47" class="edge"><title>stopAtDistance&#45;&gt;Stop</title>
<path fill="none" stroke="black" d="M1172.89,-505.245C1156.84,-501.223 1138.72,-497.041 1122,-494 1052.41,-481.343 1033.03,-490.418 964,-475 961.333,-474.404 958.63,-473.754 955.909,-473.059"/>
<polygon fill="black" stroke="black" points="956.586,-469.616 946.018,-470.375 954.752,-476.372 956.586,-469.616"/>
<text text-anchor="middle" x="1043" y="-497.8" font-family="Times,serif" font-size="14.00">stop</text>
</g>
<!-- StoptimesInPattern&#45;&gt;Pattern -->
<g id="edge48" class="edge"><title>StoptimesInPattern&#45;&gt;Pattern</title>
<path fill="none" stroke="black" d="M1277.87,-203.943C1415.38,-163.32 1773.95,-81.1603 1979,-254 1984.53,-258.657 2022.21,-433.774 2044.52,-539.385"/>
<polygon fill="black" stroke="black" points="2041.14,-540.319 2046.63,-549.381 2047.99,-538.874 2041.14,-540.319"/>
<text text-anchor="middle" x="1629" y="-154.8" font-family="Times,serif" font-size="14.00">pattern</text>
</g>
<!-- StoptimesInPattern&#45;&gt;Stoptime -->
<g id="edge49" class="edge"><title>StoptimesInPattern&#45;&gt;Stoptime</title>
<path fill="none" stroke="black" d="M1239.5,-240.202C1273.37,-275.44 1349.68,-354.83 1407.82,-415.309"/>
<polygon fill="black" stroke="black" points="1405.36,-417.803 1414.81,-422.587 1410.41,-412.952 1405.36,-417.803"/>
<text text-anchor="middle" x="1358.5" y="-401.8" font-family="Times,serif" font-size="14.00">stoptimes</text>
</g>
<!-- Stoptime&#45;&gt;Trip -->
<g id="edge51" class="edge"><title>Stoptime&#45;&gt;Trip</title>
<path fill="none" stroke="black" d="M1552.4,-516.133C1558.32,-517.878 1564.25,-519.529 1570,-521 1621.68,-534.219 1642.62,-514.948 1688,-543 1691.43,-545.122 1694.78,-547.437 1698.03,-549.91"/>
<polygon fill="black" stroke="black" points="1695.97,-552.745 1705.92,-556.365 1700.4,-547.326 1695.97,-552.745"/>
<text text-anchor="middle" x="1629" y="-546.8" font-family="Times,serif" font-size="14.00">trip</text>
</g>
<!-- Stoptime&#45;&gt;Stop -->
<g id="edge50" class="edge"><title>Stoptime&#45;&gt;Stop</title>
<path fill="none" stroke="black" d="M1414.65,-522.988C1311.57,-563.776 1111.9,-623.807 964,-551 960.744,-549.397 957.585,-547.587 954.524,-545.602"/>
<polygon fill="black" stroke="black" points="956.317,-542.58 946.157,-539.575 952.225,-548.26 956.317,-542.58"/>
<text text-anchor="middle" x="1221" y="-588.8" font-family="Times,serif" font-size="14.00">stop</text>
</g>
<!-- stopAtDistanceEdge -->
<g id="node17" class="node"><title>stopAtDistanceEdge</title>
<polygon fill="#e535ab" stroke="none" points="680,-583 680,-604 804,-604 804,-583 680,-583"/>
<polygon fill="none" stroke="black" points="680,-583 680,-604 804,-604 804,-583 680,-583"/>
<text text-anchor="start" x="683" y="-590.8" font-family="Times,serif" font-weight="bold" font-size="14.00" fill="white">stopAtDistanceEdge</text>
<text text-anchor="start" x="682" y="-569.8" font-family="Times,serif" font-size="14.00">cursor: String!</text>
<polygon fill="none" stroke="black" points="679,-563 679,-605 805,-605 805,-563 679,-563"/>
</g>
<!-- stopAtDistanceConnection&#45;&gt;stopAtDistanceEdge -->
<g id="edge52" class="edge"><title>stopAtDistanceConnection&#45;&gt;stopAtDistanceEdge</title>
<path fill="none" stroke="black" d="M348.312,-586.03C390.34,-599.516 451.191,-616.818 506,-624 574.305,-632.951 596.226,-647.452 661,-624 668.65,-621.23 669.878,-616.895 677.699,-610.688"/>
<polygon fill="black" stroke="black" points="679.766,-613.515 686.105,-605.026 675.855,-607.71 679.766,-613.515"/>
<text text-anchor="middle" x="441" y="-624.8" font-family="Times,serif" font-size="14.00">edges</text>
</g>
<!-- PageInfo -->
<g id="node18" class="node"><title>PageInfo</title>
<polygon fill="#e535ab" stroke="none" points="507.5,-593 507.5,-614 660.5,-614 660.5,-593 507.5,-593"/>
<polygon fill="none" stroke="black" points="507.5,-593 507.5,-614 660.5,-614 660.5,-593 507.5,-593"/>
<text text-anchor="start" x="558" y="-600.8" font-family="Times,serif" font-weight="bold" font-size="14.00" fill="white">PageInfo</text>
<text text-anchor="start" x="509.5" y="-579.8" font-family="Times,serif" font-size="14.00">hasNextPage: Boolean!</text>
<text text-anchor="start" x="509.5" y="-560.8" font-family="Times,serif" font-size="14.00">hasPreviousPage: Boolean!</text>
<text text-anchor="start" x="509.5" y="-541.8" font-family="Times,serif" font-size="14.00">startCursor: String</text>
<text text-anchor="start" x="509.5" y="-522.8" font-family="Times,serif" font-size="14.00">endCursor: String</text>
<polygon fill="none" stroke="black" points="506,-516.5 506,-615.5 661,-615.5 661,-516.5 506,-516.5"/>
</g>
<!-- stopAtDistanceConnection&#45;&gt;PageInfo -->
<g id="edge53" class="edge"><title>stopAtDistanceConnection&#45;&gt;PageInfo</title>
<path fill="none" stroke="black" d="M376.187,-567.44C413.418,-567.18 457.749,-566.871 495.758,-566.606"/>
<polygon fill="black" stroke="black" points="495.812,-570.105 505.787,-566.536 495.763,-563.106 495.812,-570.105"/>
<text text-anchor="middle" x="441" y="-571.8" font-family="Times,serif" font-size="14.00">pageInfo</text>
</g>
<!-- stopAtDistanceEdge&#45;&gt;stopAtDistance -->
<g id="edge54" class="edge"><title>stopAtDistanceEdge&#45;&gt;stopAtDistance</title>
<path fill="none" stroke="black" d="M798.317,-605.024C800.612,-606.296 802.85,-607.622 805,-609 814.264,-614.939 812.775,-621.935 823,-626 873.799,-646.197 892.294,-636.202 946,-626 968.144,-621.793 1089.78,-572.142 1163.34,-541.646"/>
<polygon fill="black" stroke="black" points="1165.05,-544.726 1172.95,-537.66 1162.37,-538.26 1165.05,-544.726"/>
<g id="a_edge54&#45;label"><a xlink:title="The item at the end of the edge">
<text text-anchor="middle" x="884.5" y="-641.8" font-family="Times,serif" font-size="14.00">node</text>
</a>
</g>
</g>
</g>
</svg>
